<?xml version="1.0" encoding="UTF-8" standalone="no"?>
<!-- Created with Inkscape (http://www.inkscape.org/) -->

<svg
   width="115.06411mm"
   height="111.42266mm"
   viewBox="0 0 115.06411 111.42266"
   version="1.1"
   id="svg1"
   inkscape:version="1.3.2 (091e20e, 2023-11-25, custom)"
   sodipodi:docname="hra_logo.svg"
   inkscape:export-filename="..\..\..\..\..\DevelopedGames\publicSVGs\hra_logo_small.svg"
   inkscape:export-xdpi="105.69587"
   inkscape:export-ydpi="105.69587"
   xmlns:inkscape="http://www.inkscape.org/namespaces/inkscape"
   xmlns:sodipodi="http://sodipodi.sourceforge.net/DTD/sodipodi-0.dtd"
   xmlns="http://www.w3.org/2000/svg"
   xmlns:svg="http://www.w3.org/2000/svg"
   xmlns:rdf="http://www.w3.org/1999/02/22-rdf-syntax-ns#"
   xmlns:cc="http://creativecommons.org/ns#"
   xmlns:dc="http://purl.org/dc/elements/1.1/">
  <title
     id="title2">HRA Logo</title>
  <sodipodi:namedview
     id="namedview1"
     pagecolor="#ffffff"
     bordercolor="#000000"
     borderopacity="0.25"
     inkscape:showpageshadow="2"
     inkscape:pageopacity="0.0"
     inkscape:pagecheckerboard="0"
     inkscape:deskcolor="#d1d1d1"
     inkscape:document-units="mm"
     inkscape:zoom="1.6151358"
     inkscape:cx="212.05647"
     inkscape:cy="688.79657"
     inkscape:window-width="1600"
     inkscape:window-height="837"
     inkscape:window-x="-8"
     inkscape:window-y="-8"
     inkscape:window-maximized="1"
     inkscape:current-layer="layer3"
     showgrid="true">
    <inkscape:grid
       id="grid11"
       units="mm"
       originx="-3.197225"
       originy="-130.3348"
       spacingx="0.99999998"
       spacingy="1"
       empcolor="#0099e5"
       empopacity="0.30196078"
       color="#0099e5"
       opacity="0.14901961"
       empspacing="5"
       dotted="false"
       gridanglex="30"
       gridanglez="30"
       visible="true" />
  </sodipodi:namedview>
  <defs
     id="defs1">
    <inkscape:path-effect
       effect="bspline"
       id="path-effect8"
       is_visible="true"
       lpeversion="1.3"
       weight="33.333333"
       steps="2"
       helper_size="0"
       apply_no_weight="true"
       apply_with_weight="true"
       only_selected="false"
       uniform="false" />
    <inkscape:path-effect
       effect="bspline"
       id="path-effect6"
       is_visible="true"
       lpeversion="1.3"
       weight="33.333333"
       steps="2"
       helper_size="0"
       apply_no_weight="true"
       apply_with_weight="true"
       only_selected="false"
       uniform="false" />
    <inkscape:path-effect
       effect="bspline"
       id="path-effect4"
       is_visible="true"
       lpeversion="1.3"
       weight="33.333333"
       steps="2"
       helper_size="0"
       apply_no_weight="true"
       apply_with_weight="true"
       only_selected="false"
       uniform="false" />
    <inkscape:path-effect
       effect="bspline"
       id="path-effect2"
       is_visible="true"
       lpeversion="1.3"
       weight="33.333333"
       steps="2"
       helper_size="0"
       apply_no_weight="true"
       apply_with_weight="true"
       only_selected="false"
       uniform="false" />
  </defs>
  <g
     inkscape:groupmode="layer"
     id="layer3"
     inkscape:label="Livello 3"
     transform="translate(-3.1972249,-130.3348)">
    <path
       id="path8"
       style="display:inline;stroke-width:0"
       inkscape:transform-center-x="0.027465455"
       inkscape:transform-center-y="-1.3549207"
       d="m 59.95603,134.98349 c -1.895617,0.007 -10.91914,16.09542 -12.66796,16.82688 -1.748821,0.73146 -19.539947,-4.14175 -20.875729,-2.79673 -1.335781,1.34503 3.660288,19.10227 2.940906,20.85609 -0.719382,1.75383 -16.746083,10.8881 -16.739547,12.78372 0.0065,1.89562 16.095937,10.91914 16.827397,12.66796 0.73146,1.74882 -4.142271,19.54046 -2.797245,20.87625 1.345026,1.33578 19.102268,-3.66029 20.856091,-2.94091 1.753824,0.71938 10.888099,16.74608 12.783716,16.73955 1.895617,-0.007 10.919657,-16.09594 12.668477,-16.8274 1.748821,-0.73146 19.539947,4.14227 20.875729,2.79725 1.335781,-1.34503 -3.660288,-19.10279 -2.940906,-20.85661 0.719382,-1.75383 16.746081,-10.8881 16.739551,-12.78372 -0.007,-1.89562 -16.095941,-10.91914 -16.827401,-12.66796 -0.731461,-1.74882 4.142271,-19.53995 2.797245,-20.87573 -1.345026,-1.33578 -19.102268,3.66029 -20.856091,2.94091 -1.753824,-0.71938 -10.888615,-16.74608 -12.784233,-16.73955 z m 0,9.82886 c 3.081416,-0.0133 8.559228,9.18597 11.41119,10.35286 2.851962,1.16688 13.206604,-1.55451 15.394926,0.61495 2.188322,2.16945 -0.443256,12.54697 0.748275,15.38872 1.19153,2.84175 10.437702,8.23934 10.451041,11.32076 0.01334,3.08141 -9.185973,8.55922 -10.352856,11.41119 -1.166883,2.85196 1.554508,13.2066 -0.61495,15.39492 -2.169457,2.18832 -12.547489,-0.44325 -15.389241,0.74828 -2.841752,1.19153 -8.239341,10.4377 -11.320756,10.45104 -3.081416,0.0133 -8.558711,-9.18598 -11.410673,-10.35286 -2.851962,-1.16688 -13.206604,1.55451 -15.394926,-0.61495 -2.188323,-2.16946 0.443256,-12.54749 -0.748275,-15.38924 -1.191531,-2.84175 -10.437702,-8.23934 -10.451042,-11.32076 -0.01334,-3.08141 9.185974,-8.55871 10.352857,-11.41067 1.166883,-2.85196 -1.554508,-13.2066 0.614949,-15.39492 2.169458,-2.18833 12.546973,0.44325 15.388725,-0.74828 2.841752,-1.19153 8.239341,-10.4377 11.320756,-10.45104 z" />
  </g>
  <g
     inkscape:label="Livello 1"
     inkscape:groupmode="layer"
     id="layer1"
     transform="translate(-3.1972249,-130.3348)">
    <path
       style="fill:#000000;fill-opacity:1;stroke-width:0.264583"
       d="m 135.28837,50.394184 c 22.29525,2.586497 44.59003,5.17294 61.02757,19.866481 16.43754,14.693541 27.01628,41.492415 32.30214,55.075745 5.28585,13.58334 5.27815,13.94941 5.18022,13.95838 -0.0979,0.009 -0.2861,-0.33919 -6.66125,-11.69109 C 220.76189,116.2518 208.19999,93.896588 191.82508,82.424885 175.45018,70.953182 155.2636,70.365913 135.07661,69.778631"
       id="path2"
       inkscape:path-effect="#path-effect2"
       inkscape:original-d="m 135.28837,50.394184 c 22.29525,2.586497 44.59003,5.17294 66.88572,7.759488 10.57939,26.800535 21.15813,53.599408 31.73754,80.399978 -0.008,0.36609 -0.0154,0.73217 -0.0231,1.09825 -0.18816,-0.34815 -0.37632,-0.6963 -0.56449,-1.04445 C 220.7619,116.25179 208.19999,93.896587 195.63758,71.540476 175.45018,70.953182 155.2636,70.365913 135.07661,69.778631"
       transform="matrix(0,0.70695316,-0.47546152,0,85.489649,72.48833)"
       sodipodi:nodetypes="ccccccc" />
    <path
       style="fill:#000000;fill-opacity:1;stroke-width:0.264583"
       d="m 135.28837,50.394184 c 22.29525,2.586497 44.59003,5.17294 61.02757,19.866481 16.43754,14.693541 27.01628,41.492415 32.30214,55.075745 5.28585,13.58334 5.27815,13.94941 5.18022,13.95838 -0.0979,0.009 -0.2861,-0.33919 -6.66125,-11.69109 C 220.76189,116.2518 208.19999,93.896588 191.82508,82.424885 175.45018,70.953182 155.2636,70.365913 135.07661,69.778631"
       id="path3"
       inkscape:path-effect="#path-effect4"
       inkscape:original-d="m 135.28837,50.394184 c 22.29525,2.586497 44.59003,5.17294 66.88572,7.759488 10.57939,26.800535 21.15813,53.599408 31.73754,80.399978 -0.008,0.36609 -0.0154,0.73217 -0.0231,1.09825 -0.18816,-0.34815 -0.37632,-0.6963 -0.56449,-1.04445 C 220.7619,116.25179 208.19999,93.896587 195.63758,71.540476 175.45018,70.953182 155.2636,70.365913 135.07661,69.778631"
       transform="matrix(0.54459457,0,0,-0.49770907,-13.044926,202.30889)"
       sodipodi:nodetypes="ccccccc" />
    <path
       style="fill:#000000;fill-opacity:1;stroke-width:0.264583"
       d="m 135.28837,50.394184 c 22.29525,2.586497 44.59003,5.17294 61.02757,19.866481 16.43754,14.693541 27.01628,41.492415 32.30214,55.075745 5.28585,13.58334 5.27815,13.94941 5.18022,13.95838 -0.0979,0.009 -0.2861,-0.33919 -6.66125,-11.69109 C 220.76189,116.2518 208.19999,93.896588 191.82508,82.424885 175.45018,70.953182 155.2636,70.365913 135.07661,69.778631"
       id="path4"
       inkscape:path-effect="#path-effect6"
       inkscape:original-d="m 135.28837,50.394184 c 22.29525,2.586497 44.59003,5.17294 66.88572,7.759488 10.57939,26.800535 21.15813,53.599408 31.73754,80.399978 -0.008,0.36609 -0.0154,0.73217 -0.0231,1.09825 -0.18816,-0.34815 -0.37632,-0.6963 -0.56449,-1.04445 C 220.7619,116.25179 208.19999,93.896587 195.63758,71.540476 175.45018,70.953182 155.2636,70.365913 135.07661,69.778631"
       transform="matrix(-0.55397921,0,0,-0.48728534,135.3749,201.61978)"
       sodipodi:nodetypes="ccccccc" />
    <path
       style="fill:#000000;fill-opacity:1;stroke-width:0.264583"
       d="m 135.28837,50.394184 c 22.29525,2.586497 44.59003,5.17294 61.02757,19.866481 16.43754,14.693541 27.01628,41.492415 32.30214,55.075745 5.28585,13.58334 5.27815,13.94941 5.18022,13.95838 -0.0979,0.009 -0.2861,-0.33919 -6.66125,-11.69109 C 220.76189,116.2518 208.19999,93.896588 191.82508,82.424885 175.45018,70.953182 155.2636,70.365913 135.07661,69.778631"
       id="path6"
       inkscape:path-effect="#path-effect8"
       inkscape:original-d="m 135.28837,50.394184 c 22.29525,2.586497 44.59003,5.17294 66.88572,7.759488 10.57939,26.800535 21.15813,53.599408 31.73754,80.399978 -0.008,0.36609 -0.0154,0.73217 -0.0231,1.09825 -0.18816,-0.34815 -0.37632,-0.6963 -0.56449,-1.04445 C 220.7619,116.25179 208.19999,93.896587 195.63758,71.540476 175.45018,70.953182 155.2636,70.365913 135.07661,69.778631"
       transform="matrix(0,0.70695316,0.47546152,0,34.683545,72.488331)"
       sodipodi:nodetypes="ccccccc" />
  </g>
  <metadata
     id="metadata2">
    <rdf:RDF>
      <cc:Work
         rdf:about="">
        <dc:title>HRA Logo</dc:title>
      </cc:Work>
    </rdf:RDF>
  </metadata>
</svg>
