<?xml version="1.0" encoding="UTF-8" standalone="no"?>
<!-- Created with Inkscape (http://www.inkscape.org/) -->

<svg
   width="115.06411mm"
   height="111.42266mm"
   viewBox="0 0 115.06411 111.42266"
   version="1.1"
   id="svg1"
   inkscape:version="1.3.2 (091e20e, 2023-11-25, custom)"
   sodipodi:docname="hra_logo_star_small.svg"
   inkscape:export-filename="..\..\..\..\..\DevelopedGames\publicSVGs\hra_logo_star_small.svg"
   inkscape:export-xdpi="39.734367"
   inkscape:export-ydpi="39.734367"
   xmlns:inkscape="http://www.inkscape.org/namespaces/inkscape"
   xmlns:sodipodi="http://sodipodi.sourceforge.net/DTD/sodipodi-0.dtd"
   xmlns="http://www.w3.org/2000/svg"
   xmlns:svg="http://www.w3.org/2000/svg"
   xmlns:rdf="http://www.w3.org/1999/02/22-rdf-syntax-ns#"
   xmlns:cc="http://creativecommons.org/ns#"
   xmlns:dc="http://purl.org/dc/elements/1.1/">
  <title
     id="title2">HRA Logo</title>
  <sodipodi:namedview
     id="namedview1"
     pagecolor="#ffffff"
     bordercolor="#000000"
     borderopacity="0.25"
     inkscape:showpageshadow="2"
     inkscape:pageopacity="0.0"
     inkscape:pagecheckerboard="0"
     inkscape:deskcolor="#d1d1d1"
     inkscape:document-units="mm"
     inkscape:zoom="1.6151358"
     inkscape:cx="212.05647"
     inkscape:cy="243.01362"
     inkscape:window-width="1600"
     inkscape:window-height="837"
     inkscape:window-x="-8"
     inkscape:window-y="-8"
     inkscape:window-maximized="1"
     inkscape:current-layer="layer1"
     showgrid="true">
    <inkscape:grid
       id="grid11"
       units="mm"
       originx="-3.197225"
       originy="-130.3348"
       spacingx="0.99999998"
       spacingy="1"
       empcolor="#0099e5"
       empopacity="0.30196078"
       color="#0099e5"
       opacity="0.14901961"
       empspacing="5"
       dotted="false"
       gridanglex="30"
       gridanglez="30"
       visible="true" />
  </sodipodi:namedview>
  <defs
     id="defs1">
    <inkscape:path-effect
       effect="bspline"
       id="path-effect8"
       is_visible="true"
       lpeversion="1.3"
       weight="33.333333"
       steps="2"
       helper_size="0"
       apply_no_weight="true"
       apply_with_weight="true"
       only_selected="false"
       uniform="false" />
    <inkscape:path-effect
       effect="bspline"
       id="path-effect6"
       is_visible="true"
       lpeversion="1.3"
       weight="33.333333"
       steps="2"
       helper_size="0"
       apply_no_weight="true"
       apply_with_weight="true"
       only_selected="false"
       uniform="false" />
    <inkscape:path-effect
       effect="bspline"
       id="path-effect4"
       is_visible="true"
       lpeversion="1.3"
       weight="33.333333"
       steps="2"
       helper_size="0"
       apply_no_weight="true"
       apply_with_weight="true"
       only_selected="false"
       uniform="false" />
    <inkscape:path-effect
       effect="bspline"
       id="path-effect2"
       is_visible="true"
       lpeversion="1.3"
       weight="33.333333"
       steps="2"
       helper_size="0"
       apply_no_weight="true"
       apply_with_weight="true"
       only_selected="false"
       uniform="false" />
  </defs>
  <g
     inkscape:groupmode="layer"
     id="layer3"
     inkscape:label="Livello 3"
     transform="translate(-3.1972249,-130.3348)" />
  <g
     inkscape:label="Livello 1"
     inkscape:groupmode="layer"
     id="layer1"
     transform="translate(-3.1972249,-130.3348)">
    <g
       id="g1">
      <path
         id="path8"
         style="display:inline;stroke-width:0"
         inkscape:transform-center-x="0.027465455"
         inkscape:transform-center-y="-1.3549207"
         d="M 114.28037 132.98063 C 114.22703 132.97617 114.12455 133.14946 110.65268 138.7994 C 107.26842 144.30677 100.67658 155.00334 92.08689 160.82855 C 93.164731 155.42922 94.356306 149.53698 93.596358 148.78225 C 92.251334 147.44647 74.494088 152.44254 72.740267 151.72316 C 70.986445 151.00378 61.85165 134.97708 59.956034 134.98361 C 58.060419 134.99061 49.036892 151.07903 47.288074 151.81049 C 45.539254 152.54195 27.748126 147.66874 26.412345 149.01376 C 25.676003 149.7552 26.836306 155.39065 27.930082 160.67662 C 19.437027 154.90641 12.922248 144.72883 9.5456746 139.44019 C 6.0139732 133.90858 5.9097124 133.73901 5.8554606 133.74338 C 5.8012088 133.74775 5.7968026 133.92608 8.7250529 140.54503 C 11.653303 147.16398 17.514037 160.22273 26.620085 167.38267 C 27.523171 168.09275 28.459264 168.74245 29.423014 169.34224 C 29.420595 169.5767 29.399241 169.75773 29.353251 169.86985 C 28.63387 171.62368 12.607168 180.75795 12.613704 182.65357 C 12.620204 184.54919 28.709642 193.57271 29.441101 195.32153 C 30.17256 197.07035 25.298831 214.86199 26.643856 216.19778 C 27.625294 217.17247 37.275424 214.79854 43.140006 213.71111 C 37.400541 222.53954 29.306303 229.31655 24.819161 233.06341 C 19.421773 237.57035 19.256064 237.70345 19.260327 237.77269 C 19.26459 237.84192 19.438785 237.84723 25.897131 234.11038 C 31.574929 230.82516 42.105504 224.64485 49.315857 215.30377 C 52.598167 219.73183 58.758215 230.00167 60.283663 229.99642 C 61.781325 229.99089 67.683046 220.04106 70.97655 215.46345 C 78.18327 224.7166 88.630564 230.84364 94.27642 234.11038 C 100.73477 237.84723 100.90844 237.84192 100.91271 237.77269 C 100.91697 237.70345 100.75178 237.57035 95.35439 233.06341 C 90.834107 229.28888 82.653811 222.43844 76.907454 213.51422 C 82.732398 214.52692 92.833109 216.9679 93.827869 215.96627 C 95.163648 214.62124 90.167582 196.86348 90.886963 195.10966 C 91.606344 193.35583 107.63304 184.22156 107.62651 182.32594 C 107.61951 180.43032 91.530572 171.4068 90.799113 169.65798 C 90.789299 169.63452 90.790917 169.5781 90.783093 169.54894 C 91.846721 168.87946 92.877734 168.14849 93.867659 167.33978 C 102.81945 160.02668 108.58071 146.68855 111.45935 139.92801 C 114.338 133.16747 114.3337 132.9851 114.28037 132.98063 z M 59.956034 144.81247 C 63.037447 144.79917 68.515265 153.99844 71.367224 155.16533 C 74.219183 156.3322 84.57383 153.61082 86.76215 155.78028 C 87.876094 156.88461 87.740369 160.11438 87.496472 163.39583 C 79.375862 167.06705 69.948707 167.3288 60.51724 167.57956 L 60.517757 167.61728 C 50.720843 167.36658 40.92592 167.11051 32.551505 163.28731 C 32.29787 160.13107 32.181652 157.08595 33.246554 156.01179 C 35.416009 153.82346 45.793529 156.45504 48.635278 155.26351 C 51.477027 154.07198 56.874622 144.82581 59.956034 144.81247 z M 32.709635 171.13024 C 38.548672 173.93646 45.208721 175.25008 52.105351 176.13355 C 51.726728 187.59947 50.712621 198.73428 46.30002 208.09956 C 46.017835 208.69847 45.71343 209.28575 45.404985 209.87 C 41.1909 210.06203 35.09898 211.13433 33.478064 209.52738 C 31.289743 207.35792 33.921319 196.97989 32.729789 194.13814 C 31.538259 191.29639 22.292088 185.8988 22.278748 182.81738 C 22.265408 179.73598 31.464722 174.25867 32.631604 171.40671 C 32.664167 171.32713 32.682938 171.22117 32.709635 171.13024 z M 87.588973 171.30956 C 89.005741 174.18439 97.948336 179.45654 97.961466 182.48976 C 97.974806 185.57116 88.775492 191.04898 87.60861 193.90095 C 86.441728 196.7529 89.163116 207.10755 86.99366 209.29587 C 85.337742 210.96619 78.918818 209.8375 74.699837 209.73512 C 74.416656 209.19436 74.134209 208.65282 73.873531 208.09956 C 69.491227 198.79858 68.460925 187.75225 68.075952 176.36972 C 75.002526 175.48062 81.710633 174.17868 87.588973 171.30956 z M 60.086776 183.69123 C 61.332357 193.90873 63.425686 203.5163 68.089905 211.27456 C 68.328627 211.67164 68.589597 212.05192 68.84128 212.43935 C 66.017122 215.56384 62.535264 220.48544 60.283663 220.49519 C 57.976487 220.50515 54.326617 215.35166 51.440792 212.27088 C 51.65455 211.93826 51.879425 211.61426 52.083647 211.27456 C 56.747872 203.51629 58.841195 193.90875 60.086776 183.69123 z " />
    </g>
  </g>
  <metadata
     id="metadata2">
    <rdf:RDF>
      <cc:Work
         rdf:about="">
        <dc:title>HRA Logo</dc:title>
      </cc:Work>
    </rdf:RDF>
  </metadata>
</svg>
