<?xml version="1.0" encoding="UTF-8" standalone="no"?>
<!-- Created with Inkscape (http://www.inkscape.org/) -->

<svg
   width="108.47916mm"
   height="105.83334mm"
   viewBox="0 0 108.47916 105.83334"
   version="1.1"
   id="svg1"
   xmlns="http://www.w3.org/2000/svg"
   xmlns:svg="http://www.w3.org/2000/svg"
   xmlns:rdf="http://www.w3.org/1999/02/22-rdf-syntax-ns#"
   xmlns:cc="http://creativecommons.org/ns#"
   xmlns:dc="http://purl.org/dc/elements/1.1/">
  <title
     id="title2">HRA Logo</title>
  <defs
     id="defs1" />
  <g
     id="layer1">
    <path
       style="fill:#000000;fill-opacity:1;stroke-width:0.264583"
       d="m 135.28837,50.394184 c 22.29525,2.586497 44.59003,5.17294 61.02757,19.866481 16.43754,14.693541 27.01628,41.492415 32.30214,55.075745 5.28585,13.58334 5.27815,13.94941 5.18022,13.95838 -0.0979,0.009 -0.2861,-0.33919 -6.66125,-11.69109 C 220.76189,116.2518 208.19999,93.896588 191.82508,82.424885 175.45018,70.953182 155.2636,70.365913 135.07661,69.778631"
       id="path2"
       transform="matrix(0,0.70695316,-0.47546152,0,80.392925,-60.489829)" />
    <path
       style="fill:#000000;fill-opacity:1;stroke-width:0.264583"
       d="m 135.28837,50.394184 c 22.29525,2.586497 44.59003,5.17294 61.02757,19.866481 16.43754,14.693541 27.01628,41.492415 32.30214,55.075745 5.28585,13.58334 5.27815,13.94941 5.18022,13.95838 -0.0979,0.009 -0.2861,-0.33919 -6.66125,-11.69109 C 220.76189,116.2518 208.19999,93.896588 191.82508,82.424885 175.45018,70.953182 155.2636,70.365913 135.07661,69.778631"
       id="path3"
       transform="matrix(0.54459457,0,0,-0.49770907,-18.14165,69.166917)" />
    <path
       style="fill:#000000;fill-opacity:1;stroke-width:0.264583"
       d="m 135.28837,50.394184 c 22.29525,2.586497 44.59003,5.17294 61.02757,19.866481 16.43754,14.693541 27.01628,41.492415 32.30214,55.075745 5.28585,13.58334 5.27815,13.94941 5.18022,13.95838 -0.0979,0.009 -0.2861,-0.33919 -6.66125,-11.69109 C 220.76189,116.2518 208.19999,93.896588 191.82508,82.424885 175.45018,70.953182 155.2636,70.365913 135.07661,69.778631"
       id="path4"
       transform="matrix(-0.55397921,0,0,-0.48728534,130.27818,68.641624)" />
    <path
       style="fill:#000000;fill-opacity:1;stroke-width:0.264583"
       d="m 135.28837,50.394184 c 22.29525,2.586497 44.59003,5.17294 61.02757,19.866481 16.43754,14.693541 27.01628,41.492415 32.30214,55.075745 5.28585,13.58334 5.27815,13.94941 5.18022,13.95838 -0.0979,0.009 -0.2861,-0.33919 -6.66125,-11.69109 C 220.76189,116.2518 208.19999,93.896588 191.82508,82.424885 175.45018,70.953182 155.2636,70.365913 135.07661,69.778631"
       id="path6"
       transform="matrix(0,0.70695316,0.47546152,0,29.586821,-60.489828)" />
    <path
       style="fill:#000000;fill-opacity:1;stroke-width:1.7512"
       d="m 77.052833,377.85133 c 19.721449,-16.79631 47.963777,-45.59042 58.858417,-60.00839 26.586,-35.18392 37.65902,-71.33268 41.89218,-136.76043 l 1.20047,-18.55439 -13.76252,-2.13554 C 93.931568,149.32737 60.867343,123.11364 24.416509,48.744876 17.729552,35.101819 12.258405,22.925123 12.258405,21.685549 c 0,-1.239573 5.186253,5.557385 11.525006,15.104351 15.942252,24.011057 25.987068,36.266327 43.071672,52.549993 17.031895,16.233427 31.967785,25.500077 50.654517,31.427497 15.68876,4.97648 45.24877,9.64468 62.21322,9.82491 6.61851,0.0703 16.17087,0.71707 21.22747,1.43724 5.05659,0.72018 9.1938,0.78523 9.1938,0.14456 0,-0.64066 10.83556,-1.66136 24.07901,-2.26823 40.43997,-1.85311 68.12773,-8.2781 89.45939,-20.75919 17.16436,-10.042811 44.83041,-39.412183 63.01708,-66.896869 8.84213,-13.362699 16.0766,-23.480855 16.0766,-22.484791 0,3.408975 -17.22637,39.9949 -26.05814,55.343133 -20.80215,36.150867 -38.53668,54.381487 -65.8799,67.722787 -17.73929,8.65535 -43.76131,16.13821 -64.13883,18.44366 l -10.3595,1.17204 0.82668,5.46112 c 0.45467,3.00361 1.31258,14.52358 1.90645,25.59992 2.67373,49.86793 14.61314,88.39988 37.1696,119.95726 11.50595,16.09728 32.84064,38.68047 52.76957,55.85763 8.8243,7.60585 15.67393,14.19906 15.2214,14.65159 -1.16607,1.16606 -28.88984,-15.65218 -46.52937,-28.22639 -20.42058,-14.55667 -46.46568,-40.99826 -56.76754,-57.63171 -14.35379,-23.17575 -24.15739,-53.13341 -30.22142,-92.34997 -1.71272,-11.07635 -3.34237,-18.16871 -3.62144,-15.76081 -5.74039,49.52976 -18.69234,89.1143 -38.12081,116.50728 -10.89483,15.36106 -37.62342,40.13206 -58.69844,54.39941 -18.95363,12.8312 -39.499486,25.25983 -41.633673,25.18509 -0.670767,-0.0235 3.114644,-3.73407 8.412026,-8.24573 z"
       id="path8"
       transform="scale(0.26458333)" />
    <path
       style="fill:#000000;fill-opacity:1;stroke-width:1.7512"
       d="m 77.052833,377.93783 c 5.297383,-4.46408 19.913839,-18.43258 32.481017,-31.04111 48.30731,-48.46623 62.98915,-84.12525 68.27047,-165.81421 l 1.19958,-18.55439 -13.76252,-2.13554 C 103.41195,150.79845 70.48282,129.23482 40.308868,78.580553 29.684664,60.74526 12.258405,25.259022 12.258405,21.459545 c 0,-1.12033 6.810753,8.052252 15.135007,20.383515 26.521879,39.288602 54.946184,65.46689 82.701568,76.16671 27.51324,10.60647 71.57678,15.11258 120.14831,12.28685 61.92063,-3.60234 86.81436,-11.99538 115.99239,-39.107406 14.9423,-13.884278 30.3778,-33.080641 45.82497,-56.990225 5.89354,-9.122208 10.71552,-15.694183 10.71552,-14.604389 0,3.549922 -17.01443,39.797027 -26.05814,55.513553 -20.80215,36.150867 -38.53668,54.381487 -65.8799,67.722787 -17.72316,8.64749 -43.75897,16.13794 -64.08748,18.43785 l -10.30815,1.16623 0.79484,6.34253 c 0.43715,3.48839 1.26673,14.61695 1.84349,24.73013 4.34758,76.23152 27.9734,122.39556 90.01266,175.88166 8.77952,7.56913 15.60001,14.1248 15.15664,14.56819 -1.23323,1.23323 -33.34133,-18.36478 -49.13547,-29.99107 -19.4907,-14.34743 -44.12826,-39.70848 -53.96964,-55.55451 -14.15785,-22.79615 -23.33601,-49.84963 -29.2922,-86.34145 -1.87075,-11.46156 -3.63388,-21.0717 -3.91806,-21.35589 -0.28419,-0.28419 -2.3363,10.27552 -4.56023,23.466 -6.62741,39.30801 -17.50963,68.51527 -34.40161,92.33195 -10.89483,15.36106 -37.62342,40.13206 -58.69844,54.39941 -18.95363,12.8312 -39.499486,25.25983 -41.633673,25.18509 -0.670767,-0.0235 3.114644,-3.69514 8.412026,-8.15923 z"
       id="path9"
       transform="scale(0.26458333)" />
    <path
       style="fill:#000000;fill-opacity:1;stroke-width:1.7512"
       d="m 77.928434,376.92169 c 70.447736,-60.96077 91.826736,-100.43641 98.858176,-182.53841 0.98985,-11.55792 1.80786,-23.48488 1.8178,-26.50435 l 0.0181,-5.48994 -13.75838,-2.01174 C 104.71531,151.58233 70.352384,129.01585 40.308868,78.580553 29.706822,60.782459 12.258405,25.261636 12.258405,21.476488 c 0,-1.111012 5.458565,6.026645 12.130144,15.86146 32.087956,47.302017 59.447398,72.104452 91.190701,82.668032 26.98885,8.98138 69.97019,12.86115 114.14169,10.30314 34.59586,-2.00348 49.42983,-4.26257 69.01053,-10.50977 33.43004,-10.66581 60.64116,-35.457243 92.08852,-83.899734 6.56517,-10.113185 11.94105,-17.396393 11.94643,-16.184908 0.0177,3.98457 -17.37893,40.839362 -26.96636,57.128419 -21.05388,35.770573 -37.76156,52.733893 -64.96193,65.955853 -18.77833,9.12806 -36.56878,14.41514 -59.81497,17.77619 l -14.54185,2.10253 0.77543,6.22119 c 0.42649,3.42165 1.24733,14.49561 1.82409,24.60879 2.20141,38.60016 11.12166,74.521 24.78796,99.81845 12.70367,23.51551 36.32858,51.08293 64.67577,75.46889 9.12638,7.85105 16.18679,14.68129 15.68978,15.1783 -1.34072,1.3407 -31.67386,-17.15404 -48.49821,-29.57035 C 277.20494,340.727 253.29594,316.8544 243.33553,302.08213 228.51322,280.0992 216.35248,243.82436 209.8725,202.26369 l -2.0478,-13.13401 -4.07302,23.64121 c -6.95626,40.37661 -17.95411,70.01994 -34.77876,93.74167 -10.89483,15.36106 -37.62342,40.13206 -58.69844,54.39941 -19.065754,12.90712 -39.525385,25.27364 -41.633673,25.16488 -0.670767,-0.0346 3.508664,-4.15443 9.287627,-9.15516 z"
       id="path10"
       transform="scale(0.26458333)" />
    <path
       style="fill:#000000;fill-opacity:1;stroke-width:1.7512"
       d="m 77.928434,377.03801 c 18.628251,-15.91343 51.053266,-49.70628 60.402276,-62.95033 23.68656,-33.55499 33.68337,-65.11628 38.47017,-121.4556 2.82572,-33.25801 4.06275,-29.91539 -11.93678,-32.25483 C 104.69203,151.57893 70.354895,129.02007 40.275803,78.525047 29.342992,60.171682 12.258405,25.479176 12.258405,21.632025 c 0,-1.196557 5.561809,6.023305 12.359576,16.044138 29.395057,43.332318 55.620542,68.277187 83.835889,79.742117 33.59723,13.65177 108.11245,17.57742 164.12242,8.64638 48.78504,-7.779 78.34967,-30.183301 117.3115,-88.899531 7.08862,-10.682677 12.88838,-18.494708 12.88838,-17.360069 0,2.923915 -14.91503,35.811363 -22.38896,49.36737 -19.41565,35.21554 -41.07513,59.21486 -64.29547,71.24117 -18.66589,9.66746 -32.56018,14.20223 -57.78963,18.86118 -11.55792,2.13433 -21.00099,4.60255 -20.9846,5.48494 0.85141,45.82784 8.6541,89.2959 21.03195,117.16691 11.66498,26.2659 37.26696,58.08027 68.92861,85.65442 9.80366,8.53801 17.4261,15.92242 16.93872,16.4098 -1.3261,1.3261 -31.75771,-17.2464 -48.48066,-29.58788 -19.91306,-14.69578 -43.02676,-38.13151 -53.56268,-54.30896 -14.38046,-22.08054 -23.82709,-49.26291 -30.27833,-87.1249 -1.86871,-10.96731 -3.71934,-20.26229 -4.11254,-20.65548 -0.3932,-0.39318 -1.66338,5.82193 -2.82264,13.81139 -6.05245,41.71283 -17.98972,75.01243 -35.98702,100.38754 -10.91417,15.38833 -37.64975,40.15379 -58.69844,54.37302 -21.359995,14.42952 -39.163699,25.28086 -41.331126,25.19127 -0.837169,-0.0346 3.206117,-4.10209 8.98508,-9.03884 z"
       id="path11"
       transform="scale(0.26458333)" />
  </g>
  <metadata
     id="metadata2">
    <rdf:RDF>
      <cc:Work
         rdf:about="">
        <dc:title>HRA Logo</dc:title>
      </cc:Work>
    </rdf:RDF>
  </metadata>
</svg>
