<?xml version="1.0" encoding="UTF-8" standalone="no"?>
<!-- Created with Inkscape (http://www.inkscape.org/) -->

<svg
   width="52.916664mm"
   height="52.916668mm"
   viewBox="0 0 52.916664 52.916668"
   version="1.1"
   id="svg1"
   inkscape:version="1.3.2 (091e20e, 2023-11-25, custom)"
   sodipodi:docname="hra_logo.svg"
   inkscape:export-filename="..\..\..\..\..\DevelopedGames\publicSVGs\hra_logo_small.svg"
   inkscape:export-xdpi="105.69587"
   inkscape:export-ydpi="105.69587"
   xmlns:inkscape="http://www.inkscape.org/namespaces/inkscape"
   xmlns:sodipodi="http://sodipodi.sourceforge.net/DTD/sodipodi-0.dtd"
   xmlns="http://www.w3.org/2000/svg"
   xmlns:svg="http://www.w3.org/2000/svg"
   xmlns:rdf="http://www.w3.org/1999/02/22-rdf-syntax-ns#"
   xmlns:cc="http://creativecommons.org/ns#"
   xmlns:dc="http://purl.org/dc/elements/1.1/">
  <title
     id="title2">HRA Logo</title>
  <sodipodi:namedview
     id="namedview1"
     pagecolor="#ffffff"
     bordercolor="#000000"
     borderopacity="0.25"
     inkscape:showpageshadow="2"
     inkscape:pageopacity="0.0"
     inkscape:pagecheckerboard="0"
     inkscape:deskcolor="#d1d1d1"
     inkscape:document-units="mm"
     inkscape:zoom="0.57103676"
     inkscape:cx="306.46013"
     inkscape:cy="464.9438"
     inkscape:window-width="1600"
     inkscape:window-height="837"
     inkscape:window-x="-8"
     inkscape:window-y="-8"
     inkscape:window-maximized="1"
     inkscape:current-layer="layer1"
     showgrid="true">
    <inkscape:grid
       id="grid11"
       units="mm"
       originx="0"
       originy="0"
       spacingx="0.99999998"
       spacingy="1"
       empcolor="#0099e5"
       empopacity="0.30196078"
       color="#0099e5"
       opacity="0.14901961"
       empspacing="5"
       dotted="false"
       gridanglex="30"
       gridanglez="30"
       visible="true" />
  </sodipodi:namedview>
  <defs
     id="defs1" />
  <g
     inkscape:label="Livello 1"
     inkscape:groupmode="layer"
     id="layer1">
    <path
       style="fill-opacity:1;stroke-width:0;stroke-dasharray:none"
       d="m 12.290427,47.699477 c 2.081833,-1.904641 5.705545,-5.949216 6.750357,-7.534362 2.64713,-4.016118 3.764342,-7.793612 4.299294,-14.53672 0.315794,-3.980571 0.454041,-3.580502 -1.334012,-3.860501 C 15.281442,20.714844 11.444033,18.014829 8.0825004,11.971204 6.8606854,9.7745331 4.9513679,5.6222769 4.9513679,5.1618171 c 0,-0.1432138 0.6215678,0.7209165 1.3812649,1.9202875 3.2850927,5.1863344 6.2159612,8.1719244 9.3692182,9.5441344 3.754711,1.633947 12.082283,2.103797 18.341768,1.034866 5.452053,-0.931053 8.756097,-3.612567 13.11034,-10.640169 0.7922,-1.2785799 1.44036,-2.2135855 1.44036,-2.0777819 0,0.3499569 -1.666852,4.2861729 -2.50211,5.9086569 -2.169832,4.214863 -4.590422,7.087283 -7.185446,8.526681 -2.086042,1.157077 -3.638817,1.699829 -6.458379,2.257447 -1.291674,0.255454 -2.346999,0.550869 -2.345166,0.656482 0.09516,5.485018 0.967154,10.687601 2.350459,14.023416 1.303641,3.143701 4.164832,6.951484 7.70323,10.251761 1.095626,1.021894 1.947483,1.905717 1.893017,1.96405 -0.148203,0.158715 -3.549135,-2.064178 -5.418038,-3.541296 -2.225415,-1.758903 -4.808525,-4.563868 -5.985985,-6.50011 -1.607112,-2.642763 -2.662835,-5.896152 -3.383803,-10.42776 -0.208841,-1.312652 -0.415664,-2.425145 -0.459605,-2.472204 -0.04396,-0.04706 -0.185892,0.696812 -0.315446,1.653047 -0.676403,4.992506 -2.010476,8.978055 -4.021793,12.015138 -1.21973,1.841792 -4.207609,4.805911 -6.55994,6.507771 -2.387122,1.727035 -4.376803,3.025805 -4.619029,3.015084 -0.09356,-0.0039 0.358309,-0.490974 1.004142,-1.081841 z"
       id="path11" />
  </g>
  <metadata
     id="metadata2">
    <rdf:RDF>
      <cc:Work
         rdf:about="">
        <dc:title>HRA Logo</dc:title>
      </cc:Work>
    </rdf:RDF>
  </metadata>
</svg>
